<mxfile host="app.diagrams.net" modified="2023-05-20T20:07:28.605Z" agent="5.0 (Windows NT 10.0; Win64; x64) AppleWebKit/537.36 (KHTML, like Gecko) Chrome/113.0.0.0 Safari/537.36" etag="mBw4l6JoOvtu8ThkxS55" version="21.0.2" type="github">
  <diagram name="Page-1" id="GkOjUfX8R9ESNFSNnf-z">
    <mxGraphModel dx="1450" dy="1031" grid="0" gridSize="10" guides="1" tooltips="1" connect="1" arrows="1" fold="1" page="0" pageScale="1" pageWidth="827" pageHeight="1169" math="0" shadow="0">
      <root>
        <mxCell id="0" />
        <mxCell id="1" parent="0" />
        <mxCell id="B_t22FeP0C3Qka-Ks3Du-2" value="&amp;lt;interface&amp;gt;&lt;br&gt;IUserRepository" style="rounded=0;whiteSpace=wrap;html=1;fontSize=16;fillColor=#fff2cc;strokeColor=#d6b656;" vertex="1" parent="1">
          <mxGeometry x="160" y="94" width="237" height="68" as="geometry" />
        </mxCell>
        <mxCell id="B_t22FeP0C3Qka-Ks3Du-15" value="" style="group;movable=1;resizable=1;rotatable=1;deletable=1;editable=1;locked=0;connectable=1;" vertex="1" connectable="0" parent="1">
          <mxGeometry x="-280" y="94" width="425" height="78" as="geometry" />
        </mxCell>
        <mxCell id="B_t22FeP0C3Qka-Ks3Du-1" value="" style="rounded=0;whiteSpace=wrap;html=1;fontSize=16;" vertex="1" parent="B_t22FeP0C3Qka-Ks3Du-15">
          <mxGeometry width="267.9734219269103" height="72" as="geometry" />
        </mxCell>
        <mxCell id="B_t22FeP0C3Qka-Ks3Du-9" value="" style="endArrow=none;html=1;rounded=0;fontSize=12;startSize=8;endSize=8;curved=1;" edge="1" parent="B_t22FeP0C3Qka-Ks3Du-15">
          <mxGeometry width="50" height="50" relative="1" as="geometry">
            <mxPoint x="2.2331118493909194" y="24" as="sourcePoint" />
            <mxPoint x="270.2065337763012" y="24" as="targetPoint" />
            <Array as="points">
              <mxPoint x="158.55094130675528" y="24" />
              <mxPoint x="214.37873754152827" y="24" />
            </Array>
          </mxGeometry>
        </mxCell>
        <mxCell id="B_t22FeP0C3Qka-Ks3Du-13" value="" style="endArrow=none;html=1;rounded=0;fontSize=12;startSize=8;endSize=8;curved=1;entryX=0.998;entryY=0.636;entryDx=0;entryDy=0;exitX=-0.008;exitY=0.647;exitDx=0;exitDy=0;entryPerimeter=0;exitPerimeter=0;" edge="1" parent="B_t22FeP0C3Qka-Ks3Du-15" source="B_t22FeP0C3Qka-Ks3Du-1" target="B_t22FeP0C3Qka-Ks3Du-1">
          <mxGeometry width="50" height="50" relative="1" as="geometry">
            <mxPoint y="47" as="sourcePoint" />
            <mxPoint x="265.7403100775194" y="47" as="targetPoint" />
            <Array as="points" />
          </mxGeometry>
        </mxCell>
        <mxCell id="B_t22FeP0C3Qka-Ks3Du-12" value="-userRepository: IUserRepository" style="text;html=1;strokeColor=none;fillColor=none;align=center;verticalAlign=middle;whiteSpace=wrap;rounded=0;fontSize=16;" vertex="1" parent="B_t22FeP0C3Qka-Ks3Du-15">
          <mxGeometry x="-34.655444203435756" y="21" width="316.4053156146179" height="30" as="geometry" />
        </mxCell>
        <mxCell id="B_t22FeP0C3Qka-Ks3Du-8" value="UserController" style="text;html=1;strokeColor=none;fillColor=none;align=center;verticalAlign=middle;whiteSpace=wrap;rounded=0;fontSize=16;" vertex="1" parent="B_t22FeP0C3Qka-Ks3Du-15">
          <mxGeometry x="53.59468438538207" width="133.98671096345515" height="30" as="geometry" />
        </mxCell>
        <mxCell id="B_t22FeP0C3Qka-Ks3Du-14" value="+ Post(user): httpstatus" style="text;html=1;strokeColor=none;fillColor=none;align=center;verticalAlign=middle;whiteSpace=wrap;rounded=0;fontSize=16;" vertex="1" parent="B_t22FeP0C3Qka-Ks3Du-15">
          <mxGeometry x="-22.424242424242422" y="48" width="222.20385674931129" height="30" as="geometry" />
        </mxCell>
        <mxCell id="B_t22FeP0C3Qka-Ks3Du-37" value="" style="endArrow=classic;html=1;rounded=0;fontSize=12;startSize=8;endSize=8;curved=1;entryX=-0.008;entryY=0.624;entryDx=0;entryDy=0;entryPerimeter=0;" edge="1" parent="B_t22FeP0C3Qka-Ks3Du-15" target="B_t22FeP0C3Qka-Ks3Du-2">
          <mxGeometry width="50" height="50" relative="1" as="geometry">
            <mxPoint x="267.96969696969694" y="42" as="sourcePoint" />
            <mxPoint x="430" y="42" as="targetPoint" />
          </mxGeometry>
        </mxCell>
        <mxCell id="B_t22FeP0C3Qka-Ks3Du-87" value="&lt;font style=&quot;font-size: 14px;&quot;&gt;depends on&lt;/font&gt;" style="text;html=1;strokeColor=none;fillColor=none;align=center;verticalAlign=middle;whiteSpace=wrap;rounded=0;fontSize=16;" vertex="1" parent="B_t22FeP0C3Qka-Ks3Du-15">
          <mxGeometry x="294" y="21" width="133" height="30" as="geometry" />
        </mxCell>
        <mxCell id="B_t22FeP0C3Qka-Ks3Du-16" value="" style="group;movable=1;resizable=1;rotatable=1;deletable=1;editable=1;locked=0;connectable=1;" vertex="1" connectable="0" parent="1">
          <mxGeometry x="160" y="215" width="259" height="76" as="geometry" />
        </mxCell>
        <mxCell id="B_t22FeP0C3Qka-Ks3Du-17" value="" style="rounded=0;whiteSpace=wrap;html=1;fontSize=16;" vertex="1" parent="B_t22FeP0C3Qka-Ks3Du-16">
          <mxGeometry width="237" height="72" as="geometry" />
        </mxCell>
        <mxCell id="B_t22FeP0C3Qka-Ks3Du-18" value="UserRepository" style="text;html=1;strokeColor=none;fillColor=none;align=center;verticalAlign=middle;whiteSpace=wrap;rounded=0;fontSize=16;" vertex="1" parent="B_t22FeP0C3Qka-Ks3Du-16">
          <mxGeometry x="59.25" width="118.5" height="30" as="geometry" />
        </mxCell>
        <mxCell id="B_t22FeP0C3Qka-Ks3Du-19" value="" style="endArrow=none;html=1;rounded=0;fontSize=12;startSize=8;endSize=8;curved=1;" edge="1" parent="B_t22FeP0C3Qka-Ks3Du-16">
          <mxGeometry width="50" height="50" relative="1" as="geometry">
            <mxPoint x="1.975" y="24" as="sourcePoint" />
            <mxPoint x="238.97500000000002" y="24" as="targetPoint" />
            <Array as="points">
              <mxPoint x="140.225" y="24" />
              <mxPoint x="189.60000000000002" y="24" />
            </Array>
          </mxGeometry>
        </mxCell>
        <mxCell id="B_t22FeP0C3Qka-Ks3Du-20" value="" style="endArrow=none;html=1;rounded=0;fontSize=12;startSize=8;endSize=8;curved=1;entryX=0.998;entryY=0.636;entryDx=0;entryDy=0;exitX=-0.008;exitY=0.647;exitDx=0;exitDy=0;entryPerimeter=0;exitPerimeter=0;" edge="1" parent="B_t22FeP0C3Qka-Ks3Du-16" source="B_t22FeP0C3Qka-Ks3Du-17" target="B_t22FeP0C3Qka-Ks3Du-17">
          <mxGeometry width="50" height="50" relative="1" as="geometry">
            <mxPoint y="47" as="sourcePoint" />
            <mxPoint x="235.025" y="47" as="targetPoint" />
            <Array as="points" />
          </mxGeometry>
        </mxCell>
        <mxCell id="B_t22FeP0C3Qka-Ks3Du-21" value="-MongodbContext" style="text;html=1;strokeColor=none;fillColor=none;align=center;verticalAlign=middle;whiteSpace=wrap;rounded=0;fontSize=16;" vertex="1" parent="B_t22FeP0C3Qka-Ks3Du-16">
          <mxGeometry x="-12" y="21" width="157.75" height="30" as="geometry" />
        </mxCell>
        <mxCell id="B_t22FeP0C3Qka-Ks3Du-22" value="+ saveUser(userId): void" style="text;html=1;strokeColor=none;fillColor=none;align=center;verticalAlign=middle;whiteSpace=wrap;rounded=0;fontSize=16;" vertex="1" parent="B_t22FeP0C3Qka-Ks3Du-16">
          <mxGeometry x="-9" y="46" width="199.75" height="30" as="geometry" />
        </mxCell>
        <mxCell id="B_t22FeP0C3Qka-Ks3Du-23" value="" style="group;movable=1;resizable=1;rotatable=1;deletable=1;editable=1;locked=0;connectable=1;" vertex="1" connectable="0" parent="1">
          <mxGeometry x="-220" y="320" width="280" height="127" as="geometry" />
        </mxCell>
        <mxCell id="B_t22FeP0C3Qka-Ks3Du-49" value="" style="group" vertex="1" connectable="0" parent="B_t22FeP0C3Qka-Ks3Du-23">
          <mxGeometry x="-76" width="287" height="127" as="geometry" />
        </mxCell>
        <mxCell id="B_t22FeP0C3Qka-Ks3Du-24" value="" style="rounded=0;whiteSpace=wrap;html=1;fontSize=16;" vertex="1" parent="B_t22FeP0C3Qka-Ks3Du-49">
          <mxGeometry x="14" width="273" height="123" as="geometry" />
        </mxCell>
        <mxCell id="B_t22FeP0C3Qka-Ks3Du-25" value="StatsController" style="text;html=1;strokeColor=none;fillColor=none;align=center;verticalAlign=middle;whiteSpace=wrap;rounded=0;fontSize=16;" vertex="1" parent="B_t22FeP0C3Qka-Ks3Du-49">
          <mxGeometry x="69.84583333333333" width="105.5" height="30" as="geometry" />
        </mxCell>
        <mxCell id="B_t22FeP0C3Qka-Ks3Du-26" value="" style="endArrow=none;html=1;rounded=0;fontSize=12;startSize=8;endSize=8;curved=1;" edge="1" parent="B_t22FeP0C3Qka-Ks3Du-49">
          <mxGeometry width="50" height="50" relative="1" as="geometry">
            <mxPoint x="15" y="24" as="sourcePoint" />
            <mxPoint x="288.7583333333333" y="24" as="targetPoint" />
            <Array as="points">
              <mxPoint x="200.84166666666667" y="24" />
              <mxPoint x="244.8" y="24" />
            </Array>
          </mxGeometry>
        </mxCell>
        <mxCell id="B_t22FeP0C3Qka-Ks3Du-27" value="" style="endArrow=none;html=1;rounded=0;fontSize=12;startSize=8;endSize=8;curved=1;entryX=0.998;entryY=0.636;entryDx=0;entryDy=0;exitX=-0.008;exitY=0.647;exitDx=0;exitDy=0;entryPerimeter=0;exitPerimeter=0;" edge="1" parent="B_t22FeP0C3Qka-Ks3Du-49" source="B_t22FeP0C3Qka-Ks3Du-24" target="B_t22FeP0C3Qka-Ks3Du-24">
          <mxGeometry width="50" height="50" relative="1" as="geometry">
            <mxPoint x="76" y="47" as="sourcePoint" />
            <mxPoint x="285.2416666666667" y="47" as="targetPoint" />
            <Array as="points" />
          </mxGeometry>
        </mxCell>
        <mxCell id="B_t22FeP0C3Qka-Ks3Du-29" value="+ GetHistory(userId): stats&lt;br&gt;" style="text;html=1;strokeColor=none;fillColor=none;align=center;verticalAlign=middle;whiteSpace=wrap;rounded=0;fontSize=16;" vertex="1" parent="B_t22FeP0C3Qka-Ks3Du-49">
          <mxGeometry y="74" width="227.25" height="30" as="geometry" />
        </mxCell>
        <mxCell id="B_t22FeP0C3Qka-Ks3Du-28" value="-statsRepository: IStatsRepository" style="text;html=1;strokeColor=none;fillColor=none;align=center;verticalAlign=middle;whiteSpace=wrap;rounded=0;fontSize=16;" vertex="1" parent="B_t22FeP0C3Qka-Ks3Du-49">
          <mxGeometry x="10" y="37" width="265" height="30" as="geometry" />
        </mxCell>
        <mxCell id="B_t22FeP0C3Qka-Ks3Du-45" value="+ GetISP(location): stats" style="text;html=1;strokeColor=none;fillColor=none;align=center;verticalAlign=middle;whiteSpace=wrap;rounded=0;fontSize=16;" vertex="1" parent="B_t22FeP0C3Qka-Ks3Du-49">
          <mxGeometry x="2.5" y="97" width="211" height="30" as="geometry" />
        </mxCell>
        <mxCell id="B_t22FeP0C3Qka-Ks3Du-39" value="" style="endArrow=classic;html=1;rounded=0;fontSize=12;startSize=8;endSize=8;curved=1;exitX=0.5;exitY=1;exitDx=0;exitDy=0;entryX=0.5;entryY=0;entryDx=0;entryDy=0;" edge="1" parent="1" source="B_t22FeP0C3Qka-Ks3Du-2" target="B_t22FeP0C3Qka-Ks3Du-18">
          <mxGeometry width="50" height="50" relative="1" as="geometry">
            <mxPoint x="175" y="362" as="sourcePoint" />
            <mxPoint x="277" y="212" as="targetPoint" />
          </mxGeometry>
        </mxCell>
        <mxCell id="B_t22FeP0C3Qka-Ks3Du-40" value="" style="endArrow=classic;html=1;rounded=0;fontSize=12;startSize=8;endSize=8;curved=1;exitX=0.5;exitY=1;exitDx=0;exitDy=0;" edge="1" parent="1">
          <mxGeometry width="50" height="50" relative="1" as="geometry">
            <mxPoint x="278" y="394" as="sourcePoint" />
            <mxPoint x="279" y="457" as="targetPoint" />
          </mxGeometry>
        </mxCell>
        <mxCell id="B_t22FeP0C3Qka-Ks3Du-50" value="" style="group" vertex="1" connectable="0" parent="1">
          <mxGeometry x="146" y="460" width="287" height="128" as="geometry" />
        </mxCell>
        <mxCell id="B_t22FeP0C3Qka-Ks3Du-51" value="" style="rounded=0;whiteSpace=wrap;html=1;fontSize=16;" vertex="1" parent="B_t22FeP0C3Qka-Ks3Du-50">
          <mxGeometry x="14" width="273" height="123" as="geometry" />
        </mxCell>
        <mxCell id="B_t22FeP0C3Qka-Ks3Du-52" value="UserRepository" style="text;html=1;strokeColor=none;fillColor=none;align=center;verticalAlign=middle;whiteSpace=wrap;rounded=0;fontSize=16;" vertex="1" parent="B_t22FeP0C3Qka-Ks3Du-50">
          <mxGeometry x="69.84583333333333" width="105.5" height="30" as="geometry" />
        </mxCell>
        <mxCell id="B_t22FeP0C3Qka-Ks3Du-53" value="" style="endArrow=none;html=1;rounded=0;fontSize=12;startSize=8;endSize=8;curved=1;" edge="1" parent="B_t22FeP0C3Qka-Ks3Du-50">
          <mxGeometry width="50" height="50" relative="1" as="geometry">
            <mxPoint x="15" y="24" as="sourcePoint" />
            <mxPoint x="288.7583333333333" y="24" as="targetPoint" />
            <Array as="points">
              <mxPoint x="200.84166666666667" y="24" />
              <mxPoint x="244.8" y="24" />
            </Array>
          </mxGeometry>
        </mxCell>
        <mxCell id="B_t22FeP0C3Qka-Ks3Du-54" value="" style="endArrow=none;html=1;rounded=0;fontSize=12;startSize=8;endSize=8;curved=1;entryX=0.998;entryY=0.636;entryDx=0;entryDy=0;exitX=-0.008;exitY=0.647;exitDx=0;exitDy=0;entryPerimeter=0;exitPerimeter=0;" edge="1" parent="B_t22FeP0C3Qka-Ks3Du-50" source="B_t22FeP0C3Qka-Ks3Du-51" target="B_t22FeP0C3Qka-Ks3Du-51">
          <mxGeometry width="50" height="50" relative="1" as="geometry">
            <mxPoint x="76" y="47" as="sourcePoint" />
            <mxPoint x="285.2416666666667" y="47" as="targetPoint" />
            <Array as="points" />
          </mxGeometry>
        </mxCell>
        <mxCell id="B_t22FeP0C3Qka-Ks3Du-55" value="+ GetHistory(userId): stats&lt;br&gt;" style="text;html=1;strokeColor=none;fillColor=none;align=center;verticalAlign=middle;whiteSpace=wrap;rounded=0;fontSize=16;" vertex="1" parent="B_t22FeP0C3Qka-Ks3Du-50">
          <mxGeometry y="74" width="227.25" height="30" as="geometry" />
        </mxCell>
        <mxCell id="B_t22FeP0C3Qka-Ks3Du-56" value="-MongodbContext" style="text;html=1;strokeColor=none;fillColor=none;align=center;verticalAlign=middle;whiteSpace=wrap;rounded=0;fontSize=16;" vertex="1" parent="B_t22FeP0C3Qka-Ks3Du-50">
          <mxGeometry x="10" y="37" width="265" height="30" as="geometry" />
        </mxCell>
        <mxCell id="B_t22FeP0C3Qka-Ks3Du-58" value="+ GetResults(location): stats" style="text;html=1;strokeColor=none;fillColor=none;align=center;verticalAlign=middle;whiteSpace=wrap;rounded=0;fontSize=16;" vertex="1" parent="B_t22FeP0C3Qka-Ks3Du-50">
          <mxGeometry x="16.25" y="98" width="211" height="30" as="geometry" />
        </mxCell>
        <mxCell id="B_t22FeP0C3Qka-Ks3Du-59" value="" style="group;fillColor=#ffe6cc;strokeColor=#d79b00;" vertex="1" connectable="0" parent="1">
          <mxGeometry x="160" y="320" width="237" height="80" as="geometry" />
        </mxCell>
        <mxCell id="B_t22FeP0C3Qka-Ks3Du-5" value="" style="rounded=0;whiteSpace=wrap;html=1;fontSize=16;fillColor=#fff2cc;strokeColor=#d6b656;" vertex="1" parent="B_t22FeP0C3Qka-Ks3Du-59">
          <mxGeometry width="237" height="80" as="geometry" />
        </mxCell>
        <mxCell id="B_t22FeP0C3Qka-Ks3Du-47" value="&amp;lt;interface&amp;gt;" style="text;html=1;strokeColor=none;fillColor=none;align=center;verticalAlign=middle;whiteSpace=wrap;rounded=0;fontSize=16;" vertex="1" parent="B_t22FeP0C3Qka-Ks3Du-59">
          <mxGeometry x="23.700000000000003" y="7.567567567567568" width="189.60000000000002" height="32.432432432432435" as="geometry" />
        </mxCell>
        <mxCell id="B_t22FeP0C3Qka-Ks3Du-48" value="IStatsRepository" style="text;html=1;strokeColor=none;fillColor=none;align=center;verticalAlign=middle;whiteSpace=wrap;rounded=0;fontSize=16;" vertex="1" parent="B_t22FeP0C3Qka-Ks3Du-59">
          <mxGeometry x="59.25" y="40" width="118.5" height="32.432432432432435" as="geometry" />
        </mxCell>
        <mxCell id="B_t22FeP0C3Qka-Ks3Du-63" value="" style="swimlane;startSize=0;fontSize=16;" vertex="1" parent="1">
          <mxGeometry x="-252" y="644" width="792" height="169" as="geometry" />
        </mxCell>
        <mxCell id="B_t22FeP0C3Qka-Ks3Du-68" value="" style="endArrow=none;html=1;rounded=0;fontSize=12;startSize=8;endSize=8;curved=1;exitX=1;exitY=0.25;exitDx=0;exitDy=0;" edge="1" parent="B_t22FeP0C3Qka-Ks3Du-63">
          <mxGeometry width="50" height="50" relative="1" as="geometry">
            <mxPoint x="792" y="93" as="sourcePoint" />
            <mxPoint y="91" as="targetPoint" />
          </mxGeometry>
        </mxCell>
        <mxCell id="B_t22FeP0C3Qka-Ks3Du-69" value="" style="endArrow=none;html=1;rounded=0;fontSize=12;startSize=8;endSize=8;curved=1;exitX=1;exitY=0.25;exitDx=0;exitDy=0;" edge="1" parent="B_t22FeP0C3Qka-Ks3Du-63">
          <mxGeometry width="50" height="50" relative="1" as="geometry">
            <mxPoint x="792" y="134" as="sourcePoint" />
            <mxPoint y="132" as="targetPoint" />
          </mxGeometry>
        </mxCell>
        <mxCell id="B_t22FeP0C3Qka-Ks3Du-72" value="&lt;b&gt;Method&lt;/b&gt;" style="text;html=1;strokeColor=#6c8ebf;fillColor=#dae8fc;align=center;verticalAlign=middle;whiteSpace=wrap;rounded=0;fontSize=16;" vertex="1" parent="B_t22FeP0C3Qka-Ks3Du-63">
          <mxGeometry x="161" y="16" width="60" height="30" as="geometry" />
        </mxCell>
        <mxCell id="B_t22FeP0C3Qka-Ks3Du-73" value="&lt;b&gt;Path&lt;/b&gt;" style="text;html=1;strokeColor=#6c8ebf;fillColor=#dae8fc;align=center;verticalAlign=middle;whiteSpace=wrap;rounded=0;fontSize=16;" vertex="1" parent="B_t22FeP0C3Qka-Ks3Du-63">
          <mxGeometry x="562" y="12" width="60" height="30" as="geometry" />
        </mxCell>
        <mxCell id="B_t22FeP0C3Qka-Ks3Du-74" value="Post" style="text;html=1;strokeColor=none;fillColor=none;align=center;verticalAlign=middle;whiteSpace=wrap;rounded=0;fontSize=16;" vertex="1" parent="B_t22FeP0C3Qka-Ks3Du-63">
          <mxGeometry x="23" y="58" width="60" height="30" as="geometry" />
        </mxCell>
        <mxCell id="B_t22FeP0C3Qka-Ks3Du-75" value="Get" style="text;html=1;strokeColor=none;fillColor=none;align=center;verticalAlign=middle;whiteSpace=wrap;rounded=0;fontSize=16;" vertex="1" parent="B_t22FeP0C3Qka-Ks3Du-63">
          <mxGeometry x="20" y="100" width="60" height="30" as="geometry" />
        </mxCell>
        <mxCell id="B_t22FeP0C3Qka-Ks3Du-76" value="Get" style="text;html=1;strokeColor=none;fillColor=none;align=center;verticalAlign=middle;whiteSpace=wrap;rounded=0;fontSize=16;" vertex="1" parent="B_t22FeP0C3Qka-Ks3Du-63">
          <mxGeometry x="20" y="133" width="60" height="30" as="geometry" />
        </mxCell>
        <mxCell id="B_t22FeP0C3Qka-Ks3Du-81" value="/stats/ISP" style="text;html=1;strokeColor=none;fillColor=none;align=center;verticalAlign=middle;whiteSpace=wrap;rounded=0;fontSize=16;" vertex="1" parent="B_t22FeP0C3Qka-Ks3Du-63">
          <mxGeometry x="411" y="133" width="86" height="30" as="geometry" />
        </mxCell>
        <mxCell id="B_t22FeP0C3Qka-Ks3Du-83" value="/stats/{userId}/history" style="text;html=1;strokeColor=none;fillColor=none;align=center;verticalAlign=middle;whiteSpace=wrap;rounded=0;fontSize=16;" vertex="1" parent="B_t22FeP0C3Qka-Ks3Du-63">
          <mxGeometry x="467" y="100" width="60" height="30" as="geometry" />
        </mxCell>
        <mxCell id="B_t22FeP0C3Qka-Ks3Du-80" value="/user/{id}" style="text;html=1;strokeColor=none;fillColor=none;align=center;verticalAlign=middle;whiteSpace=wrap;rounded=0;fontSize=16;" vertex="1" parent="B_t22FeP0C3Qka-Ks3Du-63">
          <mxGeometry x="406" y="62" width="109" height="30" as="geometry" />
        </mxCell>
        <mxCell id="B_t22FeP0C3Qka-Ks3Du-64" value="Endpoints" style="text;html=1;strokeColor=none;fillColor=none;align=center;verticalAlign=middle;whiteSpace=wrap;rounded=0;fontSize=16;" vertex="1" parent="1">
          <mxGeometry x="-255" y="604" width="97" height="30" as="geometry" />
        </mxCell>
        <mxCell id="B_t22FeP0C3Qka-Ks3Du-65" value="" style="endArrow=none;html=1;rounded=0;fontSize=12;startSize=8;endSize=8;curved=1;exitX=1;exitY=0.25;exitDx=0;exitDy=0;" edge="1" parent="1" source="B_t22FeP0C3Qka-Ks3Du-63">
          <mxGeometry width="50" height="50" relative="1" as="geometry">
            <mxPoint x="363" y="616" as="sourcePoint" />
            <mxPoint x="-252" y="692" as="targetPoint" />
          </mxGeometry>
        </mxCell>
        <mxCell id="B_t22FeP0C3Qka-Ks3Du-71" value="" style="endArrow=none;html=1;rounded=0;fontSize=12;startSize=8;endSize=8;curved=1;exitX=0.5;exitY=1;exitDx=0;exitDy=0;entryX=0.5;entryY=0;entryDx=0;entryDy=0;" edge="1" parent="1" source="B_t22FeP0C3Qka-Ks3Du-63" target="B_t22FeP0C3Qka-Ks3Du-63">
          <mxGeometry width="50" height="50" relative="1" as="geometry">
            <mxPoint x="144" y="718" as="sourcePoint" />
            <mxPoint x="194" y="668" as="targetPoint" />
          </mxGeometry>
        </mxCell>
        <mxCell id="B_t22FeP0C3Qka-Ks3Du-38" value="" style="endArrow=classic;html=1;rounded=0;fontSize=12;startSize=8;endSize=8;curved=1;exitX=0.999;exitY=0.407;exitDx=0;exitDy=0;exitPerimeter=0;" edge="1" parent="1" source="B_t22FeP0C3Qka-Ks3Du-24">
          <mxGeometry width="50" height="50" relative="1" as="geometry">
            <mxPoint x="-9" y="381.5" as="sourcePoint" />
            <mxPoint x="160" y="370" as="targetPoint" />
          </mxGeometry>
        </mxCell>
        <mxCell id="B_t22FeP0C3Qka-Ks3Du-86" value="&lt;h1&gt;myInternetSpeed&lt;/h1&gt;" style="text;html=1;strokeColor=#82b366;fillColor=#d5e8d4;spacing=5;spacingTop=-20;whiteSpace=wrap;overflow=hidden;rounded=0;fontSize=16;" vertex="1" parent="1">
          <mxGeometry x="-40" width="350" height="50" as="geometry" />
        </mxCell>
        <mxCell id="B_t22FeP0C3Qka-Ks3Du-97" value="&lt;font style=&quot;font-size: 14px;&quot;&gt;depends on&lt;/font&gt;" style="text;html=1;strokeColor=none;fillColor=none;align=center;verticalAlign=middle;whiteSpace=wrap;rounded=0;fontSize=16;" vertex="1" parent="1">
          <mxGeometry x="13" y="349" width="133" height="30" as="geometry" />
        </mxCell>
        <mxCell id="B_t22FeP0C3Qka-Ks3Du-98" value="&lt;font style=&quot;font-size: 14px;&quot;&gt;implements&lt;/font&gt;" style="text;html=1;strokeColor=none;fillColor=none;align=center;verticalAlign=middle;whiteSpace=wrap;rounded=0;fontSize=16;" vertex="1" parent="1">
          <mxGeometry x="267" y="172" width="99" height="30" as="geometry" />
        </mxCell>
        <mxCell id="B_t22FeP0C3Qka-Ks3Du-100" value="&lt;font style=&quot;font-size: 14px;&quot;&gt;implements&lt;/font&gt;" style="text;html=1;strokeColor=none;fillColor=none;align=center;verticalAlign=middle;whiteSpace=wrap;rounded=0;fontSize=16;" vertex="1" parent="1">
          <mxGeometry x="267" y="411" width="99" height="30" as="geometry" />
        </mxCell>
      </root>
    </mxGraphModel>
  </diagram>
</mxfile>
